<svg width="600" height="600" viewBox="0 0 600 600" fill="none" xmlns="http://www.w3.org/2000/svg">
<circle cx="300" cy="300" r="300" fill="#FF1905"/>
<g filter="url(#filter0_f_202_3)">
<path d="M159.091 168.92V161.24H235.123C249.459 161.24 262.515 163.373 274.291 167.64C286.238 171.736 296.478 177.709 305.011 185.56C313.715 193.411 320.456 202.968 325.235 214.232C330.014 225.325 332.403 237.784 332.403 251.608C332.403 265.432 330.014 277.976 325.235 289.24C320.456 300.333 313.715 309.976 305.011 318.168C296.478 326.189 286.238 332.333 274.291 336.6C262.515 340.867 249.459 343 235.123 343H159.091V335.32H160.627C166.088 335.32 170.867 334.723 174.963 333.528C179.059 332.333 181.107 329.859 181.107 326.104V178.136C181.107 174.381 179.059 171.907 174.963 170.712C170.867 169.517 166.088 168.92 160.627 168.92H159.091ZM235.123 170.2H204.915V334.04H235.123C245.875 334.04 255.603 332.163 264.307 328.408C273.182 324.653 280.776 319.277 287.091 312.28C293.406 305.112 298.27 296.493 301.683 286.424C305.096 276.184 306.803 264.579 306.803 251.608C306.803 238.637 305.096 227.117 301.683 217.048C298.27 206.808 293.406 198.275 287.091 191.448C280.776 184.451 273.182 179.16 264.307 175.576C255.603 171.992 245.875 170.2 235.123 170.2Z" fill="white"/>
<path d="M159.091 168.92H157.091V170.92H159.091V168.92ZM159.091 161.24V159.24H157.091V161.24H159.091ZM274.291 167.64L273.61 169.52L273.626 169.526L273.642 169.532L274.291 167.64ZM305.011 185.56L303.657 187.032L303.664 187.039L303.671 187.045L305.011 185.56ZM325.235 214.232L323.394 215.013L323.398 215.023L325.235 214.232ZM325.235 289.24L327.072 290.031L327.076 290.021L325.235 289.24ZM305.011 318.168L306.381 319.625L306.382 319.624L305.011 318.168ZM274.291 336.6L273.618 334.716L273.61 334.72L274.291 336.6ZM159.091 343H157.091V345H159.091V343ZM159.091 335.32V333.32H157.091V335.32H159.091ZM174.963 333.528L175.523 335.448H175.523L174.963 333.528ZM174.963 170.712L175.523 168.792L175.523 168.792L174.963 170.712ZM204.915 170.2V168.2H202.915V170.2H204.915ZM204.915 334.04H202.915V336.04H204.915V334.04ZM264.307 328.408L263.528 326.566L263.515 326.572L264.307 328.408ZM287.091 312.28L288.576 313.62L288.584 313.611L288.592 313.602L287.091 312.28ZM301.683 286.424L303.577 287.066L303.58 287.056L301.683 286.424ZM301.683 217.048L299.786 217.68L299.789 217.69L301.683 217.048ZM287.091 191.448L285.606 192.788L285.614 192.797L285.623 192.806L287.091 191.448ZM264.307 175.576L263.545 177.425L263.558 177.43L264.307 175.576ZM161.091 168.92V161.24H157.091V168.92H161.091ZM159.091 163.24H235.123V159.24H159.091V163.24ZM235.123 163.24C249.26 163.24 262.081 165.343 273.61 169.52L274.972 165.76C262.949 161.403 249.658 159.24 235.123 159.24V163.24ZM273.642 169.532C285.351 173.546 295.345 179.385 303.657 187.032L306.365 184.088C297.611 176.034 287.124 169.926 274.94 165.748L273.642 169.532ZM303.671 187.045C312.149 194.692 318.724 204.005 323.394 215.013L327.076 213.451C322.189 201.931 315.281 192.129 306.351 184.075L303.671 187.045ZM323.398 215.023C328.055 225.833 330.403 238.017 330.403 251.608H334.403C334.403 237.551 331.973 224.818 327.072 213.441L323.398 215.023ZM330.403 251.608C330.403 265.198 328.055 277.472 323.394 288.459L327.076 290.021C331.972 278.48 334.403 265.666 334.403 251.608H330.403ZM323.398 288.449C318.727 299.294 312.143 308.709 303.64 316.712L306.382 319.624C315.287 311.243 322.186 301.373 327.072 290.031L323.398 288.449ZM303.641 316.711C295.325 324.528 285.328 330.535 273.618 334.717L274.964 338.483C287.148 334.132 297.631 327.85 306.381 319.625L303.641 316.711ZM273.61 334.72C262.081 338.897 249.26 341 235.123 341V345C249.658 345 262.949 342.837 274.972 338.48L273.61 334.72ZM235.123 341H159.091V345H235.123V341ZM161.091 343V335.32H157.091V343H161.091ZM159.091 337.32H160.627V333.32H159.091V337.32ZM160.627 337.32C166.228 337.32 171.202 336.708 175.523 335.448L174.403 331.608C170.532 332.737 165.949 333.32 160.627 333.32V337.32ZM175.523 335.448C177.831 334.775 179.761 333.683 181.112 332.051C182.481 330.396 183.107 328.364 183.107 326.104H179.107C179.107 327.598 178.709 328.681 178.03 329.501C177.333 330.344 176.191 331.087 174.403 331.608L175.523 335.448ZM183.107 326.104V178.136H179.107V326.104H183.107ZM183.107 178.136C183.107 175.876 182.481 173.844 181.112 172.189C179.761 170.557 177.831 169.465 175.523 168.792L174.403 172.632C176.191 173.153 177.333 173.896 178.03 174.739C178.709 175.559 179.107 176.642 179.107 178.136H183.107ZM175.523 168.792C171.202 167.532 166.228 166.92 160.627 166.92V170.92C165.949 170.92 170.532 171.503 174.403 172.632L175.523 168.792ZM160.627 166.92H159.091V170.92H160.627V166.92ZM235.123 168.2H204.915V172.2H235.123V168.2ZM202.915 170.2V334.04H206.915V170.2H202.915ZM204.915 336.04H235.123V332.04H204.915V336.04ZM235.123 336.04C246.111 336.04 256.114 334.121 265.099 330.244L263.515 326.572C255.092 330.205 245.639 332.04 235.123 332.04V336.04ZM265.086 330.25C274.224 326.384 282.061 320.839 288.576 313.62L285.606 310.94C279.492 317.716 272.14 322.923 263.528 326.566L265.086 330.25ZM288.592 313.602C295.1 306.214 300.089 297.358 303.577 287.066L299.789 285.782C296.451 295.629 291.711 304.01 285.59 310.958L288.592 313.602ZM303.58 287.056C307.074 276.576 308.803 264.752 308.803 251.608H304.803C304.803 264.406 303.119 275.792 299.786 285.792L303.58 287.056ZM308.803 251.608C308.803 238.465 307.074 226.722 303.577 216.406L299.789 217.69C303.119 227.513 304.803 238.809 304.803 251.608H308.803ZM303.58 216.416C300.092 205.949 295.095 197.156 288.559 190.09L285.623 192.806C291.716 199.393 296.448 207.667 299.786 217.68L303.58 216.416ZM288.576 190.108C282.055 182.882 274.207 177.417 265.056 173.722L263.558 177.43C272.156 180.903 279.498 186.019 285.606 192.788L288.576 190.108ZM265.069 173.727C256.091 170.03 246.099 168.2 235.123 168.2V172.2C245.651 172.2 255.115 173.954 263.546 177.425L265.069 173.727Z" fill="white"/>
</g>
<g filter="url(#filter1_f_202_3)">
<path d="M373.652 425.344C381.673 425.344 388.841 424.149 395.156 421.76C401.471 419.371 406.42 415.445 410.004 409.984C413.759 404.523 415.636 397.269 415.636 388.224C415.636 381.568 414.185 376.107 411.284 371.84C408.383 367.403 404.457 363.819 399.508 361.088C394.729 358.187 389.183 355.712 382.868 353.664C376.724 351.616 370.324 349.568 363.668 347.52C357.012 345.472 350.441 343.168 343.956 340.608C337.641 337.877 331.924 334.549 326.804 330.624C321.855 326.699 317.844 321.835 314.772 316.032C311.871 310.059 310.42 302.805 310.42 294.272C310.42 284.885 312.724 276.779 317.332 269.952C322.111 262.955 328.511 257.493 336.532 253.568C344.724 249.643 353.855 247.68 363.924 247.68C373.823 247.68 382.185 249.301 389.012 252.544C396.009 255.787 401.727 260.139 406.164 265.6C410.772 271.061 414.356 277.291 416.916 284.288L408.212 275.328L410.772 250.24H420.5V297.088H411.284C409.748 288.896 406.847 281.813 402.58 275.84C398.484 269.696 393.279 265.003 386.964 261.76C380.649 258.517 373.567 256.896 365.716 256.896C357.695 256.896 350.953 258.176 345.492 260.736C340.031 263.296 335.849 266.965 332.948 271.744C330.217 276.523 328.852 282.155 328.852 288.64C328.852 294.955 330.132 300.245 332.692 304.512C335.252 308.779 338.751 312.363 343.188 315.264C347.796 317.995 353.001 320.384 358.804 322.432C364.607 324.309 370.836 326.187 377.492 328.064C384.489 330.112 391.316 332.416 397.972 334.976C404.799 337.536 410.943 340.779 416.404 344.704C422.036 348.629 426.473 353.664 429.716 359.808C432.959 365.781 434.58 373.205 434.58 382.08C434.58 393.003 431.764 402.389 426.132 410.24C420.5 418.091 413.161 424.149 404.116 428.416C395.071 432.512 385.257 434.56 374.676 434.56C364.095 434.56 354.537 433.024 346.004 429.952C337.471 426.709 330.303 421.931 324.5 415.616C318.697 409.301 314.601 401.28 312.212 391.552L318.868 401.024L316.564 432H306.068V376.448H315.54C318.441 387.541 322.367 396.757 327.316 404.096C332.436 411.264 338.751 416.64 346.26 420.224C353.94 423.637 363.071 425.344 373.652 425.344Z" fill="white"/>
<path d="M395.156 421.76L394.448 419.889L395.156 421.76ZM410.004 409.984L408.356 408.851L408.344 408.869L408.332 408.887L410.004 409.984ZM411.284 371.84L409.61 372.934L409.62 372.95L409.63 372.965L411.284 371.84ZM399.508 361.088L398.47 362.798L398.506 362.819L398.542 362.839L399.508 361.088ZM382.868 353.664L382.236 355.561L382.243 355.564L382.251 355.566L382.868 353.664ZM363.668 347.52L364.256 345.608L363.668 347.52ZM343.956 340.608L343.162 342.444L343.192 342.456L343.222 342.468L343.956 340.608ZM326.804 330.624L325.561 332.191L325.574 332.201L325.587 332.211L326.804 330.624ZM314.772 316.032L312.973 316.906L312.988 316.937L313.004 316.968L314.772 316.032ZM317.332 269.952L315.68 268.824L315.674 268.833L317.332 269.952ZM336.532 253.568L335.668 251.764L335.66 251.768L335.653 251.772L336.532 253.568ZM389.012 252.544L388.154 254.351L388.162 254.355L388.171 254.359L389.012 252.544ZM406.164 265.6L404.612 266.861L404.623 266.876L404.635 266.89L406.164 265.6ZM416.916 284.288L415.481 285.682L418.794 283.601L416.916 284.288ZM408.212 275.328L406.222 275.125L406.128 276.053L406.777 276.722L408.212 275.328ZM410.772 250.24V248.24H408.966L408.782 250.037L410.772 250.24ZM420.5 250.24H422.5V248.24H420.5V250.24ZM420.5 297.088V299.088H422.5V297.088H420.5ZM411.284 297.088L409.318 297.457L409.624 299.088H411.284V297.088ZM402.58 275.84L400.916 276.949L400.934 276.976L400.953 277.002L402.58 275.84ZM345.492 260.736L346.341 262.547L345.492 260.736ZM332.948 271.744L331.238 270.706L331.225 270.729L331.212 270.752L332.948 271.744ZM332.692 304.512L334.407 303.483L332.692 304.512ZM343.188 315.264L342.094 316.938L342.13 316.962L342.168 316.985L343.188 315.264ZM358.804 322.432L358.138 324.318L358.163 324.327L358.188 324.335L358.804 322.432ZM377.492 328.064L378.054 326.145L378.044 326.142L378.035 326.139L377.492 328.064ZM397.972 334.976L397.254 336.843L397.262 336.846L397.27 336.849L397.972 334.976ZM416.404 344.704L415.237 346.328L415.249 346.336L415.26 346.345L416.404 344.704ZM429.716 359.808L427.947 360.742L427.953 360.752L427.958 360.762L429.716 359.808ZM426.132 410.24L427.757 411.406L426.132 410.24ZM404.116 428.416L404.941 430.238L404.955 430.231L404.969 430.225L404.116 428.416ZM346.004 429.952L345.294 431.822L345.31 431.828L345.327 431.834L346.004 429.952ZM324.5 415.616L323.027 416.969L324.5 415.616ZM312.212 391.552L313.848 390.402L310.27 392.029L312.212 391.552ZM318.868 401.024L320.862 401.172L320.916 400.459L320.504 399.874L318.868 401.024ZM316.564 432V434H318.421L318.558 432.148L316.564 432ZM306.068 432H304.068V434H306.068V432ZM306.068 376.448V374.448H304.068V376.448H306.068ZM315.54 376.448L317.475 375.942L317.084 374.448H315.54V376.448ZM327.316 404.096L325.658 405.214L325.673 405.237L325.689 405.258L327.316 404.096ZM346.26 420.224L345.399 422.029L345.423 422.041L345.448 422.052L346.26 420.224ZM373.652 427.344C381.871 427.344 389.285 426.12 395.864 423.631L394.448 419.889C388.398 422.179 381.476 423.344 373.652 423.344V427.344ZM395.864 423.631C402.559 421.097 407.852 416.908 411.676 411.081L408.332 408.887C404.988 413.982 400.382 417.644 394.448 419.889L395.864 423.631ZM411.652 411.117C415.706 405.221 417.636 397.53 417.636 388.224H413.636C413.636 397.009 411.812 403.825 408.356 408.851L411.652 411.117ZM417.636 388.224C417.636 381.282 416.122 375.398 412.938 370.715L409.63 372.965C412.249 376.815 413.636 381.854 413.636 388.224H417.636ZM412.958 370.745C409.866 366.017 405.69 362.215 400.474 359.337L398.542 362.839C403.225 365.423 406.899 368.789 409.61 372.934L412.958 370.745ZM400.546 359.378C395.613 356.383 389.92 353.849 383.485 351.762L382.251 355.566C388.445 357.575 393.846 359.99 398.47 362.798L400.546 359.378ZM383.5 351.767C377.341 349.713 370.926 347.661 364.256 345.608L363.08 349.432C369.722 351.475 376.107 353.519 382.236 355.561L383.5 351.767ZM364.256 345.608C357.65 343.576 351.128 341.289 344.69 338.748L343.222 342.468C349.755 345.047 356.374 347.368 363.08 349.432L364.256 345.608ZM344.75 338.772C338.576 336.102 333.002 332.856 328.021 329.037L325.587 332.211C330.846 336.243 336.707 339.652 343.162 342.444L344.75 338.772ZM328.047 329.057C323.323 325.31 319.487 320.664 316.54 315.096L313.004 316.968C316.201 323.005 320.387 328.087 325.561 332.191L328.047 329.057ZM316.571 315.158C313.834 309.523 312.42 302.586 312.42 294.272H308.42C308.42 303.025 309.907 310.594 312.973 316.906L316.571 315.158ZM312.42 294.272C312.42 285.227 314.635 277.522 318.99 271.071L315.674 268.833C310.813 276.035 308.42 284.544 308.42 294.272H312.42ZM318.984 271.08C323.556 264.384 329.683 259.146 337.411 255.364L335.653 251.772C327.338 255.841 320.665 261.525 315.68 268.824L318.984 271.08ZM337.396 255.372C345.29 251.589 354.121 249.68 363.924 249.68V245.68C353.588 245.68 344.158 247.696 335.668 251.764L337.396 255.372ZM363.924 249.68C373.614 249.68 381.665 251.268 388.154 254.351L389.87 250.737C382.706 247.334 374.031 245.68 363.924 245.68V249.68ZM388.171 254.359C394.919 257.486 400.384 261.658 404.612 266.861L407.716 264.339C403.069 258.619 397.099 254.088 389.853 250.729L388.171 254.359ZM404.635 266.89C409.086 272.165 412.555 278.188 415.038 284.975L418.794 283.601C416.157 276.393 412.458 269.958 407.693 264.31L404.635 266.89ZM418.351 282.894L409.647 273.934L406.777 276.722L415.481 285.682L418.351 282.894ZM410.202 275.531L412.762 250.443L408.782 250.037L406.222 275.125L410.202 275.531ZM410.772 252.24H420.5V248.24H410.772V252.24ZM418.5 250.24V297.088H422.5V250.24H418.5ZM420.5 295.088H411.284V299.088H420.5V295.088ZM413.25 296.719C411.667 288.28 408.665 280.918 404.207 274.678L400.953 277.002C405.028 282.709 407.829 289.512 409.318 297.457L413.25 296.719ZM404.244 274.731C399.967 268.315 394.508 263.386 387.878 259.981L386.05 263.539C392.049 266.62 397.001 271.077 400.916 276.949L404.244 274.731ZM387.878 259.981C381.251 256.578 373.85 254.896 365.716 254.896V258.896C373.283 258.896 380.047 260.456 386.05 263.539L387.878 259.981ZM365.716 254.896C357.493 254.896 350.443 256.207 344.643 258.925L346.341 262.547C351.464 260.145 357.896 258.896 365.716 258.896V254.896ZM344.643 258.925C338.854 261.638 334.361 265.564 331.238 270.706L334.658 272.782C337.338 268.367 341.207 264.953 346.341 262.547L344.643 258.925ZM331.212 270.752C328.28 275.883 326.852 281.869 326.852 288.64H330.852C330.852 282.44 332.155 277.163 334.684 272.736L331.212 270.752ZM326.852 288.64C326.852 295.221 328.187 300.89 330.977 305.541L334.407 303.483C332.077 299.6 330.852 294.688 330.852 288.64H326.852ZM330.977 305.541C333.703 310.084 337.42 313.882 342.094 316.938L344.283 313.59C340.081 310.843 336.801 307.474 334.407 303.483L330.977 305.541ZM342.168 316.985C346.904 319.791 352.23 322.233 358.138 324.318L359.47 320.546C353.772 318.535 348.688 316.199 344.208 313.543L342.168 316.985ZM358.188 324.335C364.018 326.221 370.272 328.106 376.949 329.989L378.035 326.139C371.4 324.268 365.195 322.398 359.42 320.529L358.188 324.335ZM376.93 329.983C383.876 332.016 390.65 334.303 397.254 336.843L398.69 333.109C391.982 330.529 385.103 328.208 378.054 326.145L376.93 329.983ZM397.27 336.849C403.945 339.352 409.93 342.514 415.237 346.328L417.571 343.08C411.955 339.043 405.652 335.72 398.674 333.103L397.27 336.849ZM415.26 346.345C420.627 350.085 424.852 354.876 427.947 360.742L431.485 358.874C428.095 352.452 423.445 347.173 417.548 343.063L415.26 346.345ZM427.958 360.762C431.001 366.367 432.58 373.44 432.58 382.08H436.58C436.58 372.971 434.917 365.196 431.474 358.854L427.958 360.762ZM432.58 382.08C432.58 392.641 429.864 401.607 424.507 409.074L427.757 411.406C433.664 403.172 436.58 393.364 436.58 382.08H432.58ZM424.507 409.074C419.08 416.638 412.012 422.48 403.263 426.607L404.969 430.225C414.311 425.818 421.92 419.543 427.757 411.406L424.507 409.074ZM403.291 426.594C394.522 430.565 384.992 432.56 374.676 432.56V436.56C385.523 436.56 395.62 434.459 404.941 430.238L403.291 426.594ZM374.676 432.56C364.288 432.56 354.965 431.052 346.681 428.07L345.327 431.834C354.11 434.996 363.901 436.56 374.676 436.56V432.56ZM346.714 428.082C338.453 424.943 331.551 420.334 325.973 414.263L323.027 416.969C329.054 423.528 336.489 428.476 345.294 431.822L346.714 428.082ZM325.973 414.263C320.433 408.235 316.477 400.531 314.154 391.075L310.27 392.029C312.726 402.029 316.961 410.368 323.027 416.969L325.973 414.263ZM310.576 392.702L317.232 402.174L320.504 399.874L313.848 390.402L310.576 392.702ZM316.874 400.876L314.57 431.852L318.558 432.148L320.862 401.172L316.874 400.876ZM316.564 430H306.068V434H316.564V430ZM308.068 432V376.448H304.068V432H308.068ZM306.068 378.448H315.54V374.448H306.068V378.448ZM313.605 376.954C316.548 388.205 320.551 397.643 325.658 405.214L328.974 402.978C324.182 395.872 320.335 386.878 317.475 375.942L313.605 376.954ZM325.689 405.258C330.993 412.685 337.566 418.29 345.399 422.029L347.121 418.419C339.936 414.99 333.879 409.843 328.943 402.934L325.689 405.258ZM345.448 422.052C353.441 425.604 362.861 427.344 373.652 427.344V423.344C363.28 423.344 354.439 421.671 347.072 418.396L345.448 422.052Z" fill="white"/>
</g>
<defs>
<filter id="filter0_f_202_3" x="158.091" y="160.24" width="175.312" height="183.76" filterUnits="userSpaceOnUse" color-interpolation-filters="sRGB">
<feFlood flood-opacity="0" result="BackgroundImageFix"/>
<feBlend mode="normal" in="SourceGraphic" in2="BackgroundImageFix" result="shape"/>
<feGaussianBlur stdDeviation="0.5" result="effect1_foregroundBlur_202_3"/>
</filter>
<filter id="filter1_f_202_3" x="305.068" y="246.68" width="130.512" height="188.88" filterUnits="userSpaceOnUse" color-interpolation-filters="sRGB">
<feFlood flood-opacity="0" result="BackgroundImageFix"/>
<feBlend mode="normal" in="SourceGraphic" in2="BackgroundImageFix" result="shape"/>
<feGaussianBlur stdDeviation="0.5" result="effect1_foregroundBlur_202_3"/>
</filter>
</defs>
</svg>