<svg width="1920" height="1080" viewBox="0 0 1920 1080" fill="none" xmlns="http://www.w3.org/2000/svg">
<rect width="1920" height="1080" fill="#FF1905"/>
<g filter="url(#filter0_f_1_2)">
<path d="M819.091 408.92V401.24H895.123C909.459 401.24 922.515 403.373 934.291 407.64C946.238 411.736 956.478 417.709 965.011 425.56C973.715 433.411 980.456 442.968 985.235 454.232C990.014 465.325 992.403 477.784 992.403 491.608C992.403 505.432 990.014 517.976 985.235 529.24C980.456 540.333 973.715 549.976 965.011 558.168C956.478 566.189 946.238 572.333 934.291 576.6C922.515 580.867 909.459 583 895.123 583H819.091V575.32H820.627C826.088 575.32 830.867 574.723 834.963 573.528C839.059 572.333 841.107 569.859 841.107 566.104V418.136C841.107 414.381 839.059 411.907 834.963 410.712C830.867 409.517 826.088 408.92 820.627 408.92H819.091ZM895.123 410.2H864.915V574.04H895.123C905.875 574.04 915.603 572.163 924.307 568.408C933.182 564.653 940.776 559.277 947.091 552.28C953.406 545.112 958.27 536.493 961.683 526.424C965.096 516.184 966.803 504.579 966.803 491.608C966.803 478.637 965.096 467.117 961.683 457.048C958.27 446.808 953.406 438.275 947.091 431.448C940.776 424.451 933.182 419.16 924.307 415.576C915.603 411.992 905.875 410.2 895.123 410.2Z" fill="white"/>
<path d="M819.091 408.92H817.091V410.92H819.091V408.92ZM819.091 401.24V399.24H817.091V401.24H819.091ZM934.291 407.64L933.61 409.52L933.626 409.526L933.642 409.532L934.291 407.64ZM965.011 425.56L963.657 427.032L963.664 427.039L963.671 427.045L965.011 425.56ZM985.235 454.232L983.394 455.013L983.398 455.023L985.235 454.232ZM985.235 529.24L987.072 530.031L987.076 530.021L985.235 529.24ZM965.011 558.168L966.381 559.625L966.382 559.624L965.011 558.168ZM934.291 576.6L933.618 574.716L933.61 574.72L934.291 576.6ZM819.091 583H817.091V585H819.091V583ZM819.091 575.32V573.32H817.091V575.32H819.091ZM834.963 573.528L835.523 575.448H835.523L834.963 573.528ZM834.963 410.712L835.523 408.792L835.523 408.792L834.963 410.712ZM864.915 410.2V408.2H862.915V410.2H864.915ZM864.915 574.04H862.915V576.04H864.915V574.04ZM924.307 568.408L923.528 566.566L923.515 566.572L924.307 568.408ZM947.091 552.28L948.576 553.62L948.584 553.611L948.592 553.602L947.091 552.28ZM961.683 526.424L963.577 527.066L963.58 527.056L961.683 526.424ZM961.683 457.048L959.786 457.68L959.789 457.69L961.683 457.048ZM947.091 431.448L945.606 432.788L945.614 432.797L945.623 432.806L947.091 431.448ZM924.307 415.576L923.545 417.425L923.558 417.43L924.307 415.576ZM821.091 408.92V401.24H817.091V408.92H821.091ZM819.091 403.24H895.123V399.24H819.091V403.24ZM895.123 403.24C909.26 403.24 922.081 405.343 933.61 409.52L934.972 405.76C922.949 401.403 909.658 399.24 895.123 399.24V403.24ZM933.642 409.532C945.351 413.546 955.345 419.385 963.657 427.032L966.365 424.088C957.611 416.034 947.124 409.926 934.94 405.748L933.642 409.532ZM963.671 427.045C972.149 434.692 978.724 444.005 983.394 455.013L987.076 453.451C982.189 441.931 975.281 432.129 966.351 424.075L963.671 427.045ZM983.398 455.023C988.055 465.833 990.403 478.017 990.403 491.608H994.403C994.403 477.551 991.973 464.818 987.072 453.441L983.398 455.023ZM990.403 491.608C990.403 505.198 988.055 517.472 983.394 528.459L987.076 530.021C991.972 518.48 994.403 505.666 994.403 491.608H990.403ZM983.398 528.449C978.727 539.294 972.143 548.709 963.64 556.712L966.382 559.624C975.287 551.243 982.186 541.373 987.072 530.031L983.398 528.449ZM963.641 556.711C955.325 564.528 945.328 570.535 933.618 574.717L934.964 578.483C947.148 574.132 957.631 567.85 966.381 559.625L963.641 556.711ZM933.61 574.72C922.081 578.897 909.26 581 895.123 581V585C909.658 585 922.949 582.837 934.972 578.48L933.61 574.72ZM895.123 581H819.091V585H895.123V581ZM821.091 583V575.32H817.091V583H821.091ZM819.091 577.32H820.627V573.32H819.091V577.32ZM820.627 577.32C826.228 577.32 831.202 576.708 835.523 575.448L834.403 571.608C830.532 572.737 825.949 573.32 820.627 573.32V577.32ZM835.523 575.448C837.831 574.775 839.761 573.683 841.112 572.051C842.481 570.396 843.107 568.364 843.107 566.104H839.107C839.107 567.598 838.709 568.681 838.03 569.501C837.333 570.344 836.191 571.087 834.403 571.608L835.523 575.448ZM843.107 566.104V418.136H839.107V566.104H843.107ZM843.107 418.136C843.107 415.876 842.481 413.844 841.112 412.189C839.761 410.557 837.831 409.465 835.523 408.792L834.403 412.632C836.191 413.153 837.333 413.896 838.03 414.739C838.709 415.559 839.107 416.642 839.107 418.136H843.107ZM835.523 408.792C831.202 407.532 826.228 406.92 820.627 406.92V410.92C825.949 410.92 830.532 411.503 834.403 412.632L835.523 408.792ZM820.627 406.92H819.091V410.92H820.627V406.92ZM895.123 408.2H864.915V412.2H895.123V408.2ZM862.915 410.2V574.04H866.915V410.2H862.915ZM864.915 576.04H895.123V572.04H864.915V576.04ZM895.123 576.04C906.111 576.04 916.114 574.121 925.099 570.244L923.515 566.572C915.092 570.205 905.639 572.04 895.123 572.04V576.04ZM925.086 570.25C934.224 566.384 942.061 560.839 948.576 553.62L945.606 550.94C939.492 557.716 932.14 562.923 923.528 566.566L925.086 570.25ZM948.592 553.602C955.1 546.214 960.089 537.358 963.577 527.066L959.789 525.782C956.451 535.629 951.711 544.01 945.59 550.958L948.592 553.602ZM963.58 527.056C967.074 516.576 968.803 504.752 968.803 491.608H964.803C964.803 504.406 963.119 515.792 959.786 525.792L963.58 527.056ZM968.803 491.608C968.803 478.465 967.074 466.722 963.577 456.406L959.789 457.69C963.119 467.513 964.803 478.809 964.803 491.608H968.803ZM963.58 456.416C960.092 445.949 955.095 437.156 948.559 430.09L945.623 432.806C951.716 439.393 956.448 447.667 959.786 457.68L963.58 456.416ZM948.576 430.108C942.055 422.882 934.207 417.417 925.056 413.722L923.558 417.43C932.156 420.903 939.498 426.019 945.606 432.788L948.576 430.108ZM925.069 413.727C916.091 410.03 906.099 408.2 895.123 408.2V412.2C905.651 412.2 915.115 413.954 923.546 417.425L925.069 413.727Z" fill="white"/>
</g>
<g filter="url(#filter1_f_1_2)">
<path d="M1033.65 663.344C1041.67 663.344 1048.84 662.149 1055.16 659.76C1061.47 657.371 1066.42 653.445 1070 647.984C1073.76 642.523 1075.64 635.269 1075.64 626.224C1075.64 619.568 1074.19 614.107 1071.28 609.84C1068.38 605.403 1064.46 601.819 1059.51 599.088C1054.73 596.187 1049.18 593.712 1042.87 591.664C1036.72 589.616 1030.32 587.568 1023.67 585.52C1017.01 583.472 1010.44 581.168 1003.96 578.608C997.641 575.877 991.924 572.549 986.804 568.624C981.855 564.699 977.844 559.835 974.772 554.032C971.871 548.059 970.42 540.805 970.42 532.272C970.42 522.885 972.724 514.779 977.332 507.952C982.111 500.955 988.511 495.493 996.532 491.568C1004.72 487.643 1013.85 485.68 1023.92 485.68C1033.82 485.68 1042.19 487.301 1049.01 490.544C1056.01 493.787 1061.73 498.139 1066.16 503.6C1070.77 509.061 1074.36 515.291 1076.92 522.288L1068.21 513.328L1070.77 488.24H1080.5V535.088H1071.28C1069.75 526.896 1066.85 519.813 1062.58 513.84C1058.48 507.696 1053.28 503.003 1046.96 499.76C1040.65 496.517 1033.57 494.896 1025.72 494.896C1017.69 494.896 1010.95 496.176 1005.49 498.736C1000.03 501.296 995.849 504.965 992.948 509.744C990.217 514.523 988.852 520.155 988.852 526.64C988.852 532.955 990.132 538.245 992.692 542.512C995.252 546.779 998.751 550.363 1003.19 553.264C1007.8 555.995 1013 558.384 1018.8 560.432C1024.61 562.309 1030.84 564.187 1037.49 566.064C1044.49 568.112 1051.32 570.416 1057.97 572.976C1064.8 575.536 1070.94 578.779 1076.4 582.704C1082.04 586.629 1086.47 591.664 1089.72 597.808C1092.96 603.781 1094.58 611.205 1094.58 620.08C1094.58 631.003 1091.76 640.389 1086.13 648.24C1080.5 656.091 1073.16 662.149 1064.12 666.416C1055.07 670.512 1045.26 672.56 1034.68 672.56C1024.09 672.56 1014.54 671.024 1006 667.952C997.471 664.709 990.303 659.931 984.5 653.616C978.697 647.301 974.601 639.28 972.212 629.552L978.868 639.024L976.564 670H966.068V614.448H975.54C978.441 625.541 982.367 634.757 987.316 642.096C992.436 649.264 998.751 654.64 1006.26 658.224C1013.94 661.637 1023.07 663.344 1033.65 663.344Z" fill="white"/>
<path d="M1055.16 659.76L1054.45 657.889L1055.16 659.76ZM1070 647.984L1068.36 646.851L1068.34 646.869L1068.33 646.887L1070 647.984ZM1071.28 609.84L1069.61 610.934L1069.62 610.95L1069.63 610.965L1071.28 609.84ZM1059.51 599.088L1058.47 600.798L1058.51 600.819L1058.54 600.839L1059.51 599.088ZM1042.87 591.664L1042.24 593.561L1042.24 593.564L1042.25 593.566L1042.87 591.664ZM1023.67 585.52L1024.26 583.608L1023.67 585.52ZM1003.96 578.608L1003.16 580.444L1003.19 580.456L1003.22 580.468L1003.96 578.608ZM986.804 568.624L985.561 570.191L985.574 570.201L985.587 570.211L986.804 568.624ZM974.772 554.032L972.973 554.906L972.988 554.937L973.004 554.968L974.772 554.032ZM977.332 507.952L975.68 506.824L975.674 506.833L977.332 507.952ZM996.532 491.568L995.668 489.764L995.66 489.768L995.653 489.772L996.532 491.568ZM1049.01 490.544L1048.15 492.351L1048.16 492.355L1048.17 492.359L1049.01 490.544ZM1066.16 503.6L1064.61 504.861L1064.62 504.876L1064.64 504.89L1066.16 503.6ZM1076.92 522.288L1075.48 523.682L1078.79 521.601L1076.92 522.288ZM1068.21 513.328L1066.22 513.125L1066.13 514.053L1066.78 514.722L1068.21 513.328ZM1070.77 488.24V486.24H1068.97L1068.78 488.037L1070.77 488.24ZM1080.5 488.24H1082.5V486.24H1080.5V488.24ZM1080.5 535.088V537.088H1082.5V535.088H1080.5ZM1071.28 535.088L1069.32 535.457L1069.62 537.088H1071.28V535.088ZM1062.58 513.84L1060.92 514.949L1060.93 514.976L1060.95 515.002L1062.58 513.84ZM1005.49 498.736L1006.34 500.547L1005.49 498.736ZM992.948 509.744L991.238 508.706L991.225 508.729L991.212 508.752L992.948 509.744ZM992.692 542.512L994.407 541.483L992.692 542.512ZM1003.19 553.264L1002.09 554.938L1002.13 554.962L1002.17 554.985L1003.19 553.264ZM1018.8 560.432L1018.14 562.318L1018.16 562.327L1018.19 562.335L1018.8 560.432ZM1037.49 566.064L1038.05 564.145L1038.04 564.142L1038.03 564.139L1037.49 566.064ZM1057.97 572.976L1057.25 574.843L1057.26 574.846L1057.27 574.849L1057.97 572.976ZM1076.4 582.704L1075.24 584.328L1075.25 584.336L1075.26 584.345L1076.4 582.704ZM1089.72 597.808L1087.95 598.742L1087.95 598.752L1087.96 598.762L1089.72 597.808ZM1086.13 648.24L1087.76 649.406L1086.13 648.24ZM1064.12 666.416L1064.94 668.238L1064.96 668.231L1064.97 668.225L1064.12 666.416ZM1006 667.952L1005.29 669.822L1005.31 669.828L1005.33 669.834L1006 667.952ZM984.5 653.616L983.027 654.969L984.5 653.616ZM972.212 629.552L973.848 628.402L970.27 630.029L972.212 629.552ZM978.868 639.024L980.862 639.172L980.916 638.459L980.504 637.874L978.868 639.024ZM976.564 670V672H978.421L978.558 670.148L976.564 670ZM966.068 670H964.068V672H966.068V670ZM966.068 614.448V612.448H964.068V614.448H966.068ZM975.54 614.448L977.475 613.942L977.084 612.448H975.54V614.448ZM987.316 642.096L985.658 643.214L985.673 643.237L985.689 643.258L987.316 642.096ZM1006.26 658.224L1005.4 660.029L1005.42 660.041L1005.45 660.052L1006.26 658.224ZM1033.65 665.344C1041.87 665.344 1049.28 664.12 1055.86 661.631L1054.45 657.889C1048.4 660.179 1041.48 661.344 1033.65 661.344V665.344ZM1055.86 661.631C1062.56 659.097 1067.85 654.908 1071.68 649.081L1068.33 646.887C1064.99 651.982 1060.38 655.644 1054.45 657.889L1055.86 661.631ZM1071.65 649.117C1075.71 643.221 1077.64 635.53 1077.64 626.224H1073.64C1073.64 635.009 1071.81 641.825 1068.36 646.851L1071.65 649.117ZM1077.64 626.224C1077.64 619.282 1076.12 613.398 1072.94 608.715L1069.63 610.965C1072.25 614.815 1073.64 619.854 1073.64 626.224H1077.64ZM1072.96 608.745C1069.87 604.017 1065.69 600.215 1060.47 597.337L1058.54 600.839C1063.22 603.423 1066.9 606.789 1069.61 610.934L1072.96 608.745ZM1060.55 597.378C1055.61 594.383 1049.92 591.849 1043.49 589.762L1042.25 593.566C1048.44 595.575 1053.85 597.99 1058.47 600.798L1060.55 597.378ZM1043.5 589.767C1037.34 587.713 1030.93 585.661 1024.26 583.608L1023.08 587.432C1029.72 589.475 1036.11 591.519 1042.24 593.561L1043.5 589.767ZM1024.26 583.608C1017.65 581.576 1011.13 579.289 1004.69 576.748L1003.22 580.468C1009.75 583.047 1016.37 585.368 1023.08 587.432L1024.26 583.608ZM1004.75 576.772C998.576 574.102 993.002 570.856 988.021 567.037L985.587 570.211C990.846 574.243 996.707 577.652 1003.16 580.444L1004.75 576.772ZM988.047 567.057C983.323 563.31 979.487 558.664 976.54 553.096L973.004 554.968C976.201 561.005 980.387 566.087 985.561 570.191L988.047 567.057ZM976.571 553.158C973.834 547.523 972.42 540.586 972.42 532.272H968.42C968.42 541.025 969.907 548.594 972.973 554.906L976.571 553.158ZM972.42 532.272C972.42 523.227 974.635 515.522 978.99 509.071L975.674 506.833C970.813 514.035 968.42 522.544 968.42 532.272H972.42ZM978.984 509.08C983.556 502.384 989.683 497.146 997.411 493.364L995.653 489.772C987.338 493.841 980.665 499.525 975.68 506.824L978.984 509.08ZM997.396 493.372C1005.29 489.589 1014.12 487.68 1023.92 487.68V483.68C1013.59 483.68 1004.16 485.696 995.668 489.764L997.396 493.372ZM1023.92 487.68C1033.61 487.68 1041.66 489.268 1048.15 492.351L1049.87 488.737C1042.71 485.334 1034.03 483.68 1023.92 483.68V487.68ZM1048.17 492.359C1054.92 495.486 1060.38 499.658 1064.61 504.861L1067.72 502.339C1063.07 496.619 1057.1 492.088 1049.85 488.729L1048.17 492.359ZM1064.64 504.89C1069.09 510.165 1072.55 516.188 1075.04 522.975L1078.79 521.601C1076.16 514.393 1072.46 507.958 1067.69 502.31L1064.64 504.89ZM1078.35 520.894L1069.65 511.934L1066.78 514.722L1075.48 523.682L1078.35 520.894ZM1070.2 513.531L1072.76 488.443L1068.78 488.037L1066.22 513.125L1070.2 513.531ZM1070.77 490.24H1080.5V486.24H1070.77V490.24ZM1078.5 488.24V535.088H1082.5V488.24H1078.5ZM1080.5 533.088H1071.28V537.088H1080.5V533.088ZM1073.25 534.719C1071.67 526.28 1068.66 518.918 1064.21 512.678L1060.95 515.002C1065.03 520.709 1067.83 527.512 1069.32 535.457L1073.25 534.719ZM1064.24 512.731C1059.97 506.315 1054.51 501.386 1047.88 497.981L1046.05 501.539C1052.05 504.62 1057 509.077 1060.92 514.949L1064.24 512.731ZM1047.88 497.981C1041.25 494.578 1033.85 492.896 1025.72 492.896V496.896C1033.28 496.896 1040.05 498.456 1046.05 501.539L1047.88 497.981ZM1025.72 492.896C1017.49 492.896 1010.44 494.207 1004.64 496.925L1006.34 500.547C1011.46 498.145 1017.9 496.896 1025.72 496.896V492.896ZM1004.64 496.925C998.854 499.638 994.361 503.564 991.238 508.706L994.658 510.782C997.338 506.367 1001.21 502.953 1006.34 500.547L1004.64 496.925ZM991.212 508.752C988.28 513.883 986.852 519.869 986.852 526.64H990.852C990.852 520.44 992.155 515.163 994.684 510.736L991.212 508.752ZM986.852 526.64C986.852 533.221 988.187 538.89 990.977 543.541L994.407 541.483C992.077 537.6 990.852 532.688 990.852 526.64H986.852ZM990.977 543.541C993.703 548.084 997.42 551.882 1002.09 554.938L1004.28 551.59C1000.08 548.843 996.801 545.474 994.407 541.483L990.977 543.541ZM1002.17 554.985C1006.9 557.791 1012.23 560.233 1018.14 562.318L1019.47 558.546C1013.77 556.535 1008.69 554.199 1004.21 551.543L1002.17 554.985ZM1018.19 562.335C1024.02 564.221 1030.27 566.106 1036.95 567.989L1038.03 564.139C1031.4 562.268 1025.2 560.398 1019.42 558.529L1018.19 562.335ZM1036.93 567.983C1043.88 570.016 1050.65 572.303 1057.25 574.843L1058.69 571.109C1051.98 568.529 1045.1 566.208 1038.05 564.145L1036.93 567.983ZM1057.27 574.849C1063.94 577.352 1069.93 580.514 1075.24 584.328L1077.57 581.08C1071.96 577.043 1065.65 573.72 1058.67 571.103L1057.27 574.849ZM1075.26 584.345C1080.63 588.085 1084.85 592.876 1087.95 598.742L1091.48 596.874C1088.09 590.452 1083.44 585.173 1077.55 581.063L1075.26 584.345ZM1087.96 598.762C1091 604.367 1092.58 611.44 1092.58 620.08H1096.58C1096.58 610.971 1094.92 603.196 1091.47 596.854L1087.96 598.762ZM1092.58 620.08C1092.58 630.641 1089.86 639.607 1084.51 647.074L1087.76 649.406C1093.66 641.172 1096.58 631.364 1096.58 620.08H1092.58ZM1084.51 647.074C1079.08 654.638 1072.01 660.48 1063.26 664.607L1064.97 668.225C1074.31 663.818 1081.92 657.543 1087.76 649.406L1084.51 647.074ZM1063.29 664.594C1054.52 668.565 1044.99 670.56 1034.68 670.56V674.56C1045.52 674.56 1055.62 672.459 1064.94 668.238L1063.29 664.594ZM1034.68 670.56C1024.29 670.56 1014.96 669.052 1006.68 666.07L1005.33 669.834C1014.11 672.996 1023.9 674.56 1034.68 674.56V670.56ZM1006.71 666.082C998.453 662.943 991.551 658.334 985.973 652.263L983.027 654.969C989.054 661.528 996.489 666.476 1005.29 669.822L1006.71 666.082ZM985.973 652.263C980.433 646.235 976.477 638.531 974.154 629.075L970.27 630.029C972.726 640.029 976.961 648.368 983.027 654.969L985.973 652.263ZM970.576 630.702L977.232 640.174L980.504 637.874L973.848 628.402L970.576 630.702ZM976.874 638.876L974.57 669.852L978.558 670.148L980.862 639.172L976.874 638.876ZM976.564 668H966.068V672H976.564V668ZM968.068 670V614.448H964.068V670H968.068ZM966.068 616.448H975.54V612.448H966.068V616.448ZM973.605 614.954C976.548 626.205 980.551 635.643 985.658 643.214L988.974 640.978C984.182 633.872 980.335 624.878 977.475 613.942L973.605 614.954ZM985.689 643.258C990.993 650.685 997.566 656.29 1005.4 660.029L1007.12 656.419C999.936 652.99 993.879 647.843 988.943 640.934L985.689 643.258ZM1005.45 660.052C1013.44 663.604 1022.86 665.344 1033.65 665.344V661.344C1023.28 661.344 1014.44 659.671 1007.07 656.396L1005.45 660.052Z" fill="white"/>
</g>
<defs>
<filter id="filter0_f_1_2" x="818.091" y="400.24" width="175.312" height="183.76" filterUnits="userSpaceOnUse" color-interpolation-filters="sRGB">
<feFlood flood-opacity="0" result="BackgroundImageFix"/>
<feBlend mode="normal" in="SourceGraphic" in2="BackgroundImageFix" result="shape"/>
<feGaussianBlur stdDeviation="0.5" result="effect1_foregroundBlur_1_2"/>
</filter>
<filter id="filter1_f_1_2" x="965.068" y="484.68" width="130.512" height="188.88" filterUnits="userSpaceOnUse" color-interpolation-filters="sRGB">
<feFlood flood-opacity="0" result="BackgroundImageFix"/>
<feBlend mode="normal" in="SourceGraphic" in2="BackgroundImageFix" result="shape"/>
<feGaussianBlur stdDeviation="0.5" result="effect1_foregroundBlur_1_2"/>
</filter>
</defs>
</svg>
